# xmcd
#
# Track frame offsets: 
#        150
#        21919
#        39174
#        67914
#        88261
#        108025
#        133000
#        151062
#        171141
#        195526
#        217258
#        242251
#        265347
#        284436
#        307250
#
# Disc length: 4453 seconds
#
# Revision: 7
# Processed by: cddbd v1.5.2PL0 Copyright (c) Steve Scherf et al.
# Submitted via: ExactAudioCopyFreeDBPlugin 1.0
#
DISCID=ce11630f
DTITLE=さだまさし - 天晴～オールタイム・ベスト～
DYEAR=2013
DGENRE=Folk
TTITLE0=案山子
TTITLE1=天までとどけ
TTITLE2=関白宣言
TTITLE3=北の国から-遙かなる大地より~螢のテーマ-
TTITLE4=パンプキン・パイとシナモン・ティー
TTITLE5=Birthday
TTITLE6=胡桃の日
TTITLE7=まほろば
TTITLE8=主人公
TTITLE9=道化師のソネット
TTITLE10=向い風
TTITLE11=長崎小夜曲’90
TTITLE12=片恋
TTITLE13=青の季節
TTITLE14=あなたへ
EXTD=YEAR: 2013
EXTT0=
EXTT1=
EXTT2=
EXTT3=
EXTT4=
EXTT5=
EXTT6=
EXTT7=
EXTT8=
EXTT9=
EXTT10=
EXTT11=
EXTT12=
EXTT13=
EXTT14=
PLAYORDER=
